<svg width="122" height="48" viewBox="0 0 122 48" fill="none" xmlns="http://www.w3.org/2000/svg">
<path d="M29.5839 8.23741C31.5938 7.89449 33.6704 7.92306 35.6803 8.32313C36.6709 8.49459 37.5854 8.97087 38.4427 9.4662C39.4143 10.0473 40.4049 10.5807 41.4051 11.0951C43.815 12.6953 45.7868 14.9815 46.9108 17.6677C47.549 19.1536 47.9301 20.7444 48.092 22.3542C48.473 24.4689 48.2635 26.6597 47.5681 28.6887C47.0156 30.6986 45.7487 32.3751 44.7295 34.1561C44.5866 34.3943 44.3866 34.6038 44.2056 34.8229C42.8911 36.4043 41.3384 37.8332 39.4143 38.6238C39.5 38.5095 39.5476 38.3857 39.5667 38.2523C39.3476 38.2999 39.1285 38.3573 38.9094 38.4239C39.0332 38.262 39.2237 38.1761 39.3952 38.0618C40.0239 37.6522 40.624 37.2045 41.1955 36.7187C41.2908 36.633 41.4241 36.5853 41.4622 36.452C41.2336 36.5472 41.0907 36.7663 40.8812 36.8997C37.8616 39.081 34.08 40.2812 30.346 39.9574C26.4977 39.643 22.8303 37.776 20.2584 34.8993C18.4772 32.9275 17.1817 30.5176 16.5244 27.9457C15.7434 24.9928 15.8291 21.8113 16.8197 18.9155C17.3913 17.239 18.2295 15.6483 19.3535 14.2766C21.1157 12.0762 23.3733 10.2282 25.9738 9.11375C27.174 8.79941 28.3551 8.43744 29.5839 8.23741ZM29.7744 9.14233C27.0406 9.62813 24.4687 10.9236 22.3826 12.7525C20.1441 14.7052 18.4486 17.2771 17.5532 20.1062C17.2293 21.716 16.8864 23.3544 16.9055 25.0023C17.2484 27.4504 17.9914 29.8889 19.3821 31.9559C20.3347 33.3848 21.6015 34.5945 23.0304 35.528C23.1066 35.5756 23.1923 35.6137 23.2685 35.6423C22.4303 35.0517 21.7159 34.3183 20.9824 33.6038C18.601 31.1939 17.2674 27.8123 17.277 24.4308C17.2579 21.535 18.1724 18.6488 19.7917 16.2484C20.4871 15.5339 20.9538 14.6385 21.6206 13.886C23.821 11.7809 26.6215 10.3425 29.5649 9.59955C32.775 9.12328 36.1184 9.66623 39.0428 11.0665C41.8052 12.381 44.2056 14.4861 45.7487 17.1342C46.9299 19.1346 47.5776 21.4398 47.6348 23.7545C47.6729 22.9067 47.7491 22.0303 47.5014 21.2016C47.1966 19.9443 46.9108 18.6583 46.3203 17.5057C45.2629 15.734 44.177 13.9241 42.6244 12.5429C41.4432 11.4951 40.062 10.6855 38.5951 10.1044C37.3186 9.76149 36.0327 9.45667 34.7468 9.1328C33.1084 8.83751 31.4128 8.85656 29.7744 9.14233ZM30.1555 11.3903C27.6598 12 25.3641 13.2859 23.4019 14.9148C22.8399 15.4482 22.3064 16.0293 22.0016 16.7532C21.9349 16.9151 21.8968 17.0961 21.7921 17.2485C21.8206 17.2485 21.8683 17.239 21.8968 17.2295C22.4398 16.477 23.0113 15.7435 23.6972 15.1148C25.6308 13.3145 28.2027 12.2667 30.8127 12.0476C33.7561 11.7809 36.7662 12.5144 39.2618 14.067C40.1191 14.5528 40.9193 15.1339 41.6051 15.8483C42.8244 17.1057 43.7007 18.6964 44.2056 20.3729C44.739 21.916 45.1772 23.5544 44.9676 25.2023C44.6914 26.9456 44.6533 28.7649 43.9389 30.4128C43.3292 31.3558 42.7672 32.3276 42.1386 33.2514C40.0906 35.5756 37.4615 37.4807 34.4324 38.2237C34.1466 38.2523 33.8895 38.4142 33.5942 38.3857C33.8895 38.4523 34.1562 38.2809 34.4515 38.2809C37.3853 37.7379 40.1191 36.2232 42.1576 34.0515C44.0627 32.0226 45.3487 29.384 45.6916 26.6121C45.7011 25.4691 45.6916 24.3355 45.6916 23.1925C45.7297 22.5447 45.5487 21.916 45.3963 21.2874C44.6057 18.2868 42.7006 15.6387 40.2334 13.7813C39.5095 13.2478 38.7665 12.7239 37.9283 12.381C35.4993 11.3237 32.775 11.076 30.1555 11.3903ZM26.2881 19.6204C25.1165 21.0968 24.5545 23.0496 24.8021 24.9166C24.945 26.0407 25.3832 27.0979 25.9738 28.0505C25.8976 27.9933 25.7451 27.8695 25.6689 27.8123C25.488 27.7457 25.488 27.9552 25.5737 28.0505C26.0309 28.9459 26.7834 29.6508 27.5836 30.2509C28.2789 30.6319 28.9362 31.0893 29.6792 31.3844C30.5651 31.6987 31.4986 31.9083 32.4416 31.8321C33.5275 31.7271 34.6324 31.5366 35.6136 31.032C36.6328 30.5366 37.4901 29.746 38.2426 28.9078C38.776 28.3648 38.8332 27.5647 39.2333 26.9455C39.681 26.193 39.7667 25.2881 39.7762 24.4308C39.7953 23.5068 39.6048 22.5924 39.3381 21.716C39.2047 21.1064 38.8618 20.5729 38.5284 20.0586C37.452 18.544 35.8898 17.3343 34.0609 16.9056C31.2318 16.1817 28.0694 17.3247 26.2881 19.6204ZM95.2623 14.3433C97.8152 18.906 100.349 23.4973 102.892 28.0695C103.921 29.9365 104.978 31.7845 105.988 33.661C104.302 33.6515 102.626 33.68 100.949 33.6515C99.0725 30.2223 97.1484 26.8217 95.2717 23.3925C93.8619 25.7929 92.519 28.2315 91.1471 30.6414C90.5853 31.6416 90.0041 32.6321 89.4611 33.6419C87.8039 33.6705 86.1462 33.6515 84.489 33.661C85.5273 31.794 86.5751 29.927 87.6134 28.06C90.1567 23.4878 92.719 18.9155 95.2623 14.3433ZM75.354 14.4861C76.7828 14.4576 78.2022 14.448 79.631 14.4861C79.6119 18.4297 79.6119 22.3637 79.6119 26.3073C79.5929 27.2694 79.6119 28.2219 79.6022 29.184C81.4502 29.1935 83.2983 29.184 85.1461 29.1935C84.3173 30.6795 83.4315 32.156 82.6027 33.6515C80.1835 33.6705 77.7638 33.6612 75.3348 33.6515C75.3445 30.6128 75.3445 27.5647 75.354 24.526C75.3445 21.1731 75.3731 17.8296 75.354 14.4861ZM56.303 18.8488C57.9985 16.1817 61.0848 14.4671 64.2568 14.4671C67.3716 14.4099 70.4484 16.0007 72.2201 18.5631C73.4299 20.2872 74.0397 22.4209 73.9347 24.526C73.8109 27.6123 72.0677 30.5652 69.4389 32.1845C67.4193 33.4705 64.895 33.9372 62.5422 33.48C59.494 32.918 56.8078 30.7748 55.5791 27.9362C54.2741 25.0404 54.5503 21.4969 56.303 18.8488ZM63.2566 19.0584C61.8468 19.3632 60.5799 20.3062 59.8846 21.5731C59.2368 22.7162 59.0654 24.1164 59.418 25.3833C59.7609 26.6883 60.6466 27.8314 61.8089 28.4982C62.9712 29.165 64.3999 29.3458 65.6858 28.9935C66.9908 28.6411 68.1339 27.7552 68.8007 26.5834C69.4577 25.4308 69.6389 24.0116 69.2865 22.7256C68.934 21.4111 68.0291 20.249 66.8289 19.5822C65.7523 18.9822 64.4568 18.8012 63.2566 19.0584Z" fill="#221E1F" stroke="#221E1F" stroke-width="0.00895398"/>
<path d="M26.2877 19.62C28.0689 17.3244 31.2314 16.1813 34.0605 16.9053C35.8894 17.3339 37.4516 18.5437 38.528 20.0582C38.8614 20.5726 39.2043 21.106 39.3376 21.7156C39.6043 22.592 39.7949 23.5064 39.7758 24.4304C39.7663 25.2877 39.6805 26.1926 39.2328 26.9452C38.8328 27.5643 38.7756 28.3643 38.2422 28.9074C37.4897 29.7457 36.6324 30.5363 35.6131 31.0316C34.632 31.5364 33.5271 31.727 32.4412 31.8317C31.4981 31.9079 30.5646 31.6984 29.6788 31.384C28.9358 31.0887 28.2785 30.6315 27.5831 30.2505C26.783 29.6504 26.0305 28.9457 25.5733 28.0501C25.4875 27.9549 25.4875 27.7453 25.6685 27.812C25.7447 27.8691 25.8971 27.993 25.9733 28.0501C25.3828 27.0976 24.9446 26.0402 24.8017 24.9162C24.554 23.0492 25.116 21.0965 26.2877 19.62ZM29.7645 17.6768C29.6692 17.7149 29.5645 17.7626 29.4882 17.8388C31.5743 16.9434 34.0891 17.172 35.9751 18.4293C36.4704 18.8866 37.1182 19.1819 37.4706 19.7724C38.166 20.725 38.7756 21.7633 39.0709 22.9063C39.5377 25.5925 38.3565 28.4788 36.1466 30.0695C35.556 30.5361 34.8511 30.8218 34.1557 31.0983C33.6414 31.2888 33.0698 31.2602 32.5459 31.4221C32.8889 31.4317 33.2413 31.5936 33.5842 31.4886C34.1938 31.3269 34.8225 31.184 35.3941 30.8885C36.4133 30.2694 37.4516 29.5931 38.1184 28.5738C38.2231 28.3929 38.3946 28.2308 38.4137 28.0119L38.4613 27.9263C38.4708 27.9167 38.4899 27.8882 38.4994 27.869C38.8995 27.3071 38.9566 26.602 39.1281 25.945C39.5281 24.5161 39.3567 22.9635 38.7756 21.6109C38.0231 19.8867 36.5943 18.4865 34.8797 17.7245C33.9367 17.2863 32.8889 17.172 31.8696 17.1243C31.1362 17.1625 30.4408 17.4101 29.7645 17.6768ZM34.9464 19.2104C35.4988 19.6962 36.0132 20.2106 36.4609 20.7821C37.3087 21.8585 37.9564 23.2112 37.7945 24.6114C37.7088 25.6592 37.1182 26.5641 36.5657 27.4214C36.0704 28.1644 35.5179 28.8979 34.8035 29.4597C34.451 29.7455 33.9938 29.8598 33.5842 30.0598C33.2032 30.2408 32.8508 30.4789 32.4412 30.5837C33.0413 30.7077 33.6318 30.4789 34.1843 30.2884C35.6703 29.7074 36.8896 28.5548 37.6421 27.164C38.2136 25.9636 38.3374 24.5922 38.1755 23.2872C37.8802 22.106 37.2611 21.0296 36.4704 20.1056C36.1466 19.7818 35.7846 19.4389 35.3083 19.4008C35.175 19.3533 35.0702 19.2676 34.9464 19.2104ZM25.6876 25.8497C26.3448 28.4883 28.8215 30.6029 31.5648 30.6696C30.8599 30.441 30.1836 30.1457 29.5168 29.8314C28.8596 29.3837 28.1166 29.0408 27.545 28.4597C26.6782 27.612 25.8971 26.5927 25.6209 25.3925C25.5828 25.5449 25.6399 25.6973 25.6876 25.8497Z" fill="#D7DF20" stroke="#D7DF20" stroke-width="0.00895398"/>
<path d="M34.1547 31.0982C35.8884 30.641 37.441 29.5265 38.4126 28.012C38.3936 28.2311 38.2221 28.393 38.1173 28.574C37.4506 29.5932 36.4123 30.2695 35.393 30.8887C34.8215 31.1841 34.1928 31.327 33.5832 31.4888C33.2403 31.5937 32.8878 31.4316 32.5449 31.4223C33.0688 31.2602 33.6404 31.2887 34.1547 31.0982Z" fill="#221E1F" stroke="#221E1F" stroke-width="0.00895398"/>
</svg>
