<svg width="122" height="48" viewBox="0 0 122 48" fill="none" xmlns="http://www.w3.org/2000/svg">
<g clip-path="url(#clip0_390_7)">
<path d="M20.4708 30.8529C20.8603 31.8865 21.3995 32.7703 22.0886 33.5042C22.7777 34.2382 23.594 34.7999 24.5377 35.1894C25.4814 35.5789 26.5075 35.7736 27.616 35.7736C28.6945 35.7736 29.7056 35.5714 30.6493 35.1669C31.593 34.7624 32.4168 34.1932 33.1208 33.4593C33.8248 32.7253 34.3716 31.849 34.7611 30.8304C35.1506 29.8118 35.3453 28.6735 35.3453 27.4152V8.00208H40.0637V39.4584H35.3902V36.5375C34.3417 37.6458 33.1058 38.4997 31.6828 39.099C30.2597 39.6981 28.7244 39.9977 27.0767 39.9977C25.399 39.9977 23.8337 39.7055 22.3807 39.1213C20.9277 38.5372 19.6694 37.7059 18.6059 36.6273C17.5425 35.5488 16.7036 34.2533 16.0895 32.7403C15.4753 31.2274 15.1682 29.5423 15.1682 27.6847V8.00208H19.8866V27.4152C19.8866 28.6735 20.0813 29.8193 20.4708 30.8529ZM48.197 8.00208V19.4612C49.2455 18.4126 50.4589 17.5814 51.837 16.9671C53.215 16.3529 54.713 16.0459 56.3307 16.0459C58.0085 16.0459 59.5811 16.3604 61.0492 16.9895C62.5171 17.6186 63.7903 18.4725 64.8688 19.551C65.9474 20.6296 66.8012 21.9028 67.4303 23.3707C68.0595 24.8387 68.374 26.3966 68.374 28.0443C68.374 29.6919 68.0595 31.2423 67.4303 32.6952C66.8012 34.1483 65.9474 35.414 64.8688 36.4924C63.7903 37.571 62.5171 38.4248 61.0492 39.0539C59.5811 39.6831 58.0084 39.9976 56.3307 39.9976C54.7129 39.9976 53.2076 39.6905 51.8145 39.0763C50.4215 38.4622 49.2006 37.6308 48.1521 36.5823V39.4583H43.6583V8.00208H48.197ZM48.7138 31.1449C49.1182 32.1037 49.68 32.9425 50.399 33.6615C51.118 34.3805 51.9568 34.9498 52.9155 35.3692C53.8742 35.7886 54.9077 35.9983 56.0162 35.9983C57.0948 35.9983 58.1133 35.7886 59.0719 35.3692C60.0306 34.9498 60.8618 34.3806 61.566 33.6615C62.27 32.9426 62.8317 32.1037 63.2511 31.1449C63.6705 30.1863 63.8802 29.1528 63.8802 28.0443C63.8802 26.9358 63.6705 25.8947 63.2511 24.9211C62.8317 23.9474 62.27 23.1011 61.566 22.3821C60.8619 21.6632 60.0307 21.1014 59.0719 20.697C58.1132 20.2926 57.0947 20.0903 56.0162 20.0903C54.9377 20.0903 53.9191 20.2925 52.9605 20.697C52.0019 21.1015 51.163 21.6632 50.4439 22.3821C49.725 23.1011 49.1558 23.9474 48.7363 24.9211C48.3169 25.8947 48.1072 26.9358 48.1072 28.0443C48.1071 29.1528 48.3094 30.1863 48.7138 31.1449ZM70.935 23.4157C71.5341 21.9777 72.3581 20.712 73.4065 19.6186C74.455 18.5251 75.6984 17.6638 77.1364 17.0347C78.5744 16.4055 80.1322 16.091 81.8099 16.091C83.4576 16.091 84.9855 16.3906 86.3936 16.9897C87.8016 17.5889 89.0149 18.4203 90.0335 19.4838C91.0521 20.5473 91.8461 21.8056 92.4151 23.2585C92.9844 24.7116 93.269 26.2919 93.269 27.9996V29.4825H74.6199C74.7698 30.4112 75.0694 31.2725 75.5187 32.0663C75.9681 32.8602 76.5297 33.5493 77.2038 34.1334C77.8779 34.7177 78.6418 35.1746 79.4957 35.504C80.3495 35.8336 81.2556 35.9984 82.2144 35.9984C84.9407 35.9984 87.1426 34.8749 88.8203 32.628L92.1007 35.0546C90.9623 36.5825 89.5543 37.7809 87.8767 38.6496C86.1989 39.5184 84.3116 39.9528 82.2145 39.9528C80.5068 39.9528 78.9116 39.6531 77.4286 39.054C75.9457 38.4549 74.6575 37.616 73.564 36.5375C72.4705 35.4589 71.6093 34.1932 70.9801 32.7403C70.351 31.2873 70.0364 29.7069 70.0364 27.9994C70.0362 26.3817 70.3359 24.8538 70.935 23.4157ZM77.2488 21.6406C75.9755 22.7042 75.1292 24.1197 74.7098 25.8873H88.6855C88.296 24.1197 87.4646 22.7042 86.1914 21.6406C84.9181 20.5772 83.4277 20.0454 81.7201 20.0454C80.0124 20.0454 78.522 20.5772 77.2488 21.6406ZM101.762 22.1574C100.803 23.2059 100.324 24.6289 100.324 26.4265V39.4585H95.7851V16.5403H100.279V19.3714C100.848 18.4426 101.59 17.7086 102.503 17.1694C103.417 16.6301 104.503 16.3604 105.761 16.3604H107.334V20.5846H105.447C103.949 20.5847 102.721 21.1089 101.762 22.1574Z" fill="#010202"/>
</g>
<defs>
<clipPath id="clip0_390_7">
<rect width="92.1659" height="32" fill="white" transform="translate(15.1682 8)"/>
</clipPath>
</defs>
</svg>
