<svg width="107" height="48" viewBox="0 0 107 48" fill="none" xmlns="http://www.w3.org/2000/svg">
<path d="M20.0438 35.8249C19.9549 37.4244 19.5994 38.0465 18.1776 38.0465C17.1113 38.0465 17.4667 38.0465 16.4004 38.0465C16.1338 38.0465 16.0449 37.9576 16.0449 37.691C16.0449 34.9363 15.8672 32.0926 16.2226 29.3379C16.5781 26.2277 18.7997 24.1838 22.1765 23.7395C22.8874 23.6506 23.5983 23.5618 24.3092 23.5618C24.5758 23.5618 24.7535 23.6506 24.7535 23.9172C24.7535 24.9836 24.7535 25.9611 24.7535 27.0274C24.7535 27.3829 24.6647 27.4718 24.3092 27.4718C23.6872 27.4718 23.0651 27.3829 22.5319 27.5606C21.1101 27.8272 20.3104 28.627 20.2215 29.9599C20.2215 30.2265 20.1326 30.4931 20.1326 30.7597C20.1326 31.7372 20.1326 32.8035 20.1326 33.781" fill="black"/>
<path d="M60.0281 36.0913C60.0281 37.4243 59.0506 38.4906 57.7177 38.4906C56.4736 38.4906 55.4072 37.5131 55.4072 36.1802C55.4072 33.2477 55.4072 30.3152 55.4961 27.3827C55.4961 26.2275 56.5624 25.25 57.8065 25.25C59.0506 25.25 60.0281 26.2275 60.117 27.3827C60.117 28.8934 60.117 30.3152 60.117 31.8259" fill="black"/>
<path d="M51.7664 10.4987C50.7 9.52118 49.7226 8.72141 48.8339 7.92164C48.5673 7.74392 48.3896 7.83278 48.123 7.92164C47.0567 8.18823 45.9903 7.74392 45.546 6.94415C45.0128 6.14438 45.1905 5.16689 45.9903 4.54484C46.7901 3.83394 48.123 3.83394 49.0116 4.45598C49.9003 5.07802 50.1669 6.05552 49.5448 6.94415C49.3671 7.2996 49.456 7.38847 49.6337 7.65506C50.7 8.54369 51.6775 9.43232 52.7439 10.321C52.9216 10.4987 53.0994 10.4987 53.2771 10.5875C53.8103 10.7653 54.0769 11.2096 53.988 11.7428C53.8991 12.2759 53.5437 12.6314 53.0105 12.6314C51.2332 12.6314 49.456 12.6314 47.6787 12.6314C47.0567 12.6314 46.6123 12.0982 46.6123 11.4762C46.6123 10.8541 47.1455 10.4098 47.8564 10.4098C48.8339 10.4098 49.9003 10.4098 50.8778 10.4098C51.1444 10.4987 51.3221 10.4987 51.7664 10.4987Z" fill="#FFCA20"/>
<path d="M63.5856 10.5876C64.9185 10.5876 66.2515 10.5876 67.4956 10.5876C68.2953 10.5876 68.8285 11.0319 68.8285 11.654C68.8285 12.276 68.2953 12.7203 67.4956 12.7203C65.8072 12.7203 64.2076 12.8092 62.5192 12.7203C61.8972 12.7203 61.5417 12.4537 61.364 11.8317C61.2751 11.2985 61.5417 10.8542 62.0749 10.6765C62.2526 10.5876 62.4304 10.4987 62.6081 10.321C63.5856 9.43238 64.5631 8.45488 65.5406 7.56625C65.8072 7.29966 65.896 7.12194 65.7183 6.85535C65.3629 5.87785 65.6294 4.98922 66.5181 4.45604C67.4067 3.92286 68.7397 4.01172 69.4506 4.72263C70.1615 5.34467 70.2503 6.2333 69.806 7.03307C69.3617 7.83284 68.2065 8.36602 67.229 8.01057C66.4292 7.65511 66.0738 8.01057 65.6294 8.45488C65.0074 9.07693 64.2965 9.69897 63.5856 10.4099C63.6745 10.4099 63.6745 10.4987 63.5856 10.5876Z" fill="#FFCA20"/>
<path d="M60.6535 10.4099C60.6535 11.9206 59.2317 13.0758 57.5433 13.0758C55.8549 13.0758 54.522 11.8317 54.4331 10.4099C54.4331 8.89924 55.8549 7.65515 57.5433 7.65515C59.3206 7.65515 60.7424 8.89924 60.6535 10.4099Z" fill="#FFCA20"/>
<path d="M43.4119 36.5353C44.5671 37.7794 45.0115 38.046 45.989 38.3126C48.9214 39.0235 51.6762 37.7794 52.9203 35.1135C53.4535 33.9583 53.7201 32.7142 53.8089 31.3813C53.8089 30.8481 53.8089 30.3149 53.8089 29.7817C53.8978 28.1822 53.2757 26.7604 52.2982 25.4274C51.8539 24.8942 51.4096 24.4499 50.6987 24.3611C48.8326 23.4724 46.7887 23.2058 44.7449 23.6502C42.3456 24.1833 40.2128 25.2497 39.5908 27.8267C39.4131 28.4488 39.4131 29.1597 39.4131 29.7817C39.4131 31.9144 39.4131 34.136 39.3242 36.2687C39.3242 38.4903 39.3242 40.8008 39.2354 43.0223C39.2354 43.2889 39.3242 43.3778 39.5908 43.3778C40.124 43.3778 40.746 43.3778 41.2792 43.3778C42.3456 43.2889 43.1453 42.578 43.1453 41.5117L43.4119 36.5353ZM49.3658 33.6028C48.8326 34.6692 47.9439 35.2912 46.6999 35.2912C45.3669 35.2912 44.4783 34.5803 43.9451 33.514C43.5896 32.7142 43.5008 31.9144 43.5008 31.1147C43.5896 30.226 43.5896 29.3374 43.9451 28.5376C44.4783 27.3824 45.2781 26.7604 46.611 26.6715C47.8551 26.6715 48.9214 27.1158 49.4546 28.271C50.0767 30.0483 50.0767 31.8256 49.3658 33.6028Z" fill="black"/>
<path d="M75.9375 21.4289C75.9375 20.5402 75.2266 19.8293 74.2491 19.7405C73.7159 19.6516 73.0938 19.7405 72.5607 19.6516C72.1163 19.6516 72.0275 19.7405 72.0275 20.1848C72.0275 21.2511 72.0275 22.2286 72.0275 23.295C72.0275 24.0948 72.0275 24.7168 72.0275 25.5166C70.9611 24.3614 70.0725 23.8282 68.2064 23.6505C66.9623 23.5616 65.8071 23.8282 64.7407 24.3614C64.2075 24.628 64.2075 24.7168 64.0298 24.8945C63.23 25.5166 62.7857 26.3164 62.3414 27.205C61.8082 28.2713 61.5416 29.2488 61.5416 30.4041C61.4528 31.4704 61.5416 32.6256 61.8082 33.692C62.3414 35.8247 63.3189 37.602 65.8071 38.3129C67.4066 38.7572 69.0061 38.8461 70.6057 38.4906C74.0713 37.6908 75.6709 36.3579 75.8486 32.8034C76.0263 28.9822 75.9375 25.25 75.9375 21.4289ZM71.5832 33.6031C71.1388 34.7584 70.2502 35.3804 69.0061 35.4693C67.7621 35.5581 66.6957 35.0249 66.1625 33.8697C65.3627 32.1813 65.2739 30.3152 66.0736 28.6268C66.6068 27.4716 67.5843 26.8495 68.9173 26.9384C70.2502 27.0273 71.1389 27.6493 71.672 28.8934C71.9386 29.6043 72.0275 30.3152 72.0275 31.115C71.9386 31.9147 71.9386 32.8034 71.5832 33.6031Z" fill="black"/>
<path d="M38.2589 27.5604C38.2589 25.7831 37.3703 24.539 35.593 23.917C33.6381 23.2949 31.5942 23.2061 29.5503 23.5615C27.6842 23.917 26.4401 24.9834 25.907 26.7606C25.8181 27.2049 25.8181 27.3827 26.3513 27.2938C27.0622 27.2938 27.7731 27.2938 28.3951 27.2938C29.0172 27.2938 29.7281 27.4715 30.0835 26.7606C30.1724 26.5829 30.439 26.5829 30.6167 26.494C31.6831 26.2274 32.7494 26.3163 33.7269 26.6718C34.1712 26.8495 34.349 27.1161 34.4378 27.4715C34.5267 27.9158 34.2601 28.1824 33.9046 28.449C33.3715 28.8045 32.8383 28.8933 32.2162 28.9822C31.061 29.1599 29.8169 29.2488 28.6617 29.6042C27.5065 29.9597 26.4401 30.404 25.8181 31.4704C24.0408 34.4029 25.8181 37.7797 29.2838 38.3128C30.5278 38.4906 31.6831 38.4017 32.9271 38.224C35.6819 37.8685 37.6369 36.4467 37.9924 34.1363C38.1701 32.6256 38.1701 31.4704 38.1701 30.3151C38.2589 29.2488 38.2589 28.449 38.2589 27.5604ZM34.5267 32.0035C34.5267 34.314 33.1049 35.5581 30.8833 35.4692C29.9058 35.3803 29.2838 34.936 29.1949 34.1363C29.0172 33.2476 29.4615 32.5367 30.2613 32.0924C30.8833 31.8258 31.5053 31.737 32.2162 31.5592C32.6606 31.4704 33.1049 31.3815 33.5492 31.2038C34.5267 31.0261 34.5267 31.026 34.5267 32.0035Z" fill="black"/>
<path d="M64.8275 24.3615C62.7836 25.6944 61.895 27.6494 61.7173 29.9599C61.7173 30.1376 61.6284 30.3153 61.6284 30.4042C61.6284 29.4267 61.6284 28.3603 61.6284 27.3828C61.6284 25.0724 60.3843 23.9172 57.985 23.8283C56.6521 23.7394 55.408 24.006 54.6082 25.0724C54.1639 25.6944 53.8973 26.3165 53.8973 27.1162C53.8973 28.5381 53.8973 29.9599 53.8973 31.4705C53.8973 30.1376 53.8085 28.8046 53.3641 27.5606C52.831 26.3165 52.1201 25.1612 50.876 24.4503C50.876 22.1399 50.876 19.9183 50.876 17.6079C50.876 15.6529 52.3867 14.1422 54.4305 14.1422C56.7409 14.1422 58.9625 14.1422 61.273 14.1422C63.4057 14.1422 64.9164 15.7417 64.9164 17.6967C64.8275 19.9183 64.8275 22.1399 64.8275 24.3615Z" fill="#FFCA20"/>
<path d="M90.7762 29.5155C90.3319 25.961 87.8438 23.8283 84.1115 23.7394C80.9124 23.6505 78.5131 25.0723 77.5356 27.7382C77.0913 28.8935 76.9136 30.0487 76.9136 31.115C76.9136 31.3816 76.9136 31.5594 76.9136 31.7371C77.0024 33.4255 77.269 35.025 78.3354 36.4468C80.0238 38.4907 82.3342 39.0239 84.9113 38.7573C87.8438 38.4907 89.7099 36.8912 90.5097 34.1364C90.954 32.5369 91.0428 31.0262 90.7762 29.5155ZM87.044 31.0262C87.044 32.0037 86.9551 32.8923 86.5997 33.6921C85.8888 35.4693 84.1115 36.1803 82.4231 35.2916C81.8011 34.9362 81.4456 34.4919 81.2679 33.8698C80.7347 32.3591 80.6458 30.8485 81.0013 29.3378C81.3567 27.7382 82.512 26.8496 84.0226 26.9385C85.3556 26.9385 86.5108 28.0048 86.7774 29.5155C86.9551 30.0487 87.044 30.5819 87.044 31.0262Z" fill="black"/>
<path d="M55.4072 39.8234H56.6513C57.2734 39.8234 57.6288 39.9122 57.8954 40.0899C58.162 40.2677 58.2508 40.5343 58.2508 40.8897C58.2508 41.1563 58.162 41.334 58.0731 41.5118C57.9843 41.6895 57.8065 41.7784 57.6288 41.7784C57.8954 41.8672 58.0731 41.9561 58.162 42.1338C58.2508 42.3115 58.3397 42.4893 58.3397 42.7558C58.3397 43.1113 58.162 43.4668 57.8954 43.6445C57.6288 43.8222 57.2734 43.9999 56.829 43.9999H55.4072V39.8234ZM56.2959 41.4229H56.829C57.0956 41.4229 57.2734 41.4229 57.3622 41.334C57.4511 41.2452 57.5399 41.1563 57.5399 40.9786C57.5399 40.8009 57.4511 40.712 57.3622 40.6231C57.2734 40.5343 57.0956 40.5343 56.829 40.5343H56.2959V41.4229ZM56.2959 42.1338V43.2002H56.829C57.0956 43.2002 57.2734 43.1113 57.3622 43.0224C57.4511 42.9336 57.5399 42.7558 57.5399 42.5781C57.5399 42.2227 57.2734 42.0449 56.829 42.0449H56.2959V42.1338Z" fill="black"/>
<path d="M60.3877 43.9111V39.8234H61.2763V43.9111H60.3877Z" fill="black"/>
<path d="M66.7835 43.9111H65.806L64.7397 42.1338L64.3842 42.4004V43.9111H63.4956V39.8234H64.3842V41.6895L64.7397 41.2452L65.8949 39.8234H66.8724L65.4506 41.6895L66.7835 43.9111Z" fill="black"/>
<path d="M70.7826 43.9111H68.3833V39.8234H70.7826V40.5343H69.2719V41.4229H70.6937V42.1338H69.2719V43.2002H70.7826V43.9111Z" fill="black"/>
<path d="M77.0922 43.9111H76.2036V40.5343H75.0483V39.8234H78.1586V40.5343H77.0033L77.0922 43.9111Z" fill="black"/>
<path d="M82.514 43.9112L82.2474 42.9337H80.7368L80.3813 43.9112H79.4038L80.8256 39.7346H81.892L83.3138 43.9112H82.514ZM81.9808 42.2228C81.7143 41.3342 81.5365 40.801 81.5365 40.7121C81.5365 40.6232 81.4477 40.5344 81.4477 40.4455C81.3588 40.7121 81.1811 41.2453 80.9145 42.2228H81.9808Z" fill="black"/>
<path d="M88.3763 43.9111H87.3988L86.4213 42.3115L85.4438 43.9111H84.5552L85.8881 41.7784L84.644 39.8234H85.6215L86.5102 41.334L87.3988 39.8234H88.3763L87.0433 41.8672L88.3763 43.9111Z" fill="black"/>
<path d="M90.0679 43.9111V39.8234H90.9565V43.9111H90.0679Z" fill="black"/>
</svg>
